<mxfile host="app.diagrams.net" modified="2022-04-15T07:04:57.498Z" agent="5.0 (Windows NT 10.0; Win64; x64) AppleWebKit/537.36 (KHTML, like Gecko) Chrome/100.0.4896.75 Safari/537.36 Edg/100.0.1185.39" etag="zU4UYoF4VDpKwzlkWktF" version="17.2.2" type="github">
  <diagram id="NLItvh7fDbiuFQc-mLKA" name="Page-1">
    <mxGraphModel dx="1392" dy="772" grid="1" gridSize="10" guides="1" tooltips="1" connect="1" arrows="1" fold="1" page="1" pageScale="1" pageWidth="827" pageHeight="1169" math="0" shadow="0">
      <root>
        <mxCell id="0" />
        <mxCell id="1" parent="0" />
        <mxCell id="Iar_Q1YkN01XE9snn5x5-20" style="edgeStyle=orthogonalEdgeStyle;rounded=0;orthogonalLoop=1;jettySize=auto;html=1;exitX=0.5;exitY=1;exitDx=0;exitDy=0;fontSize=14;fontColor=#000000;" edge="1" parent="1" source="wTir5Os9t_VI9CqBM_ZI-1" target="wTir5Os9t_VI9CqBM_ZI-2">
          <mxGeometry relative="1" as="geometry" />
        </mxCell>
        <mxCell id="wTir5Os9t_VI9CqBM_ZI-1" value="&lt;font style=&quot;font-size: 18px&quot;&gt;开始&lt;/font&gt;" style="rounded=1;whiteSpace=wrap;html=1;fillColor=#f5f5f5;fontColor=#333333;strokeColor=#666666;" parent="1" vertex="1">
          <mxGeometry x="200" y="110" width="80" height="40" as="geometry" />
        </mxCell>
        <mxCell id="Iar_Q1YkN01XE9snn5x5-17" style="edgeStyle=orthogonalEdgeStyle;rounded=0;orthogonalLoop=1;jettySize=auto;html=1;exitX=0.5;exitY=1;exitDx=0;exitDy=0;entryX=0.5;entryY=0;entryDx=0;entryDy=0;fontSize=14;fontColor=#000000;" edge="1" parent="1" source="wTir5Os9t_VI9CqBM_ZI-2" target="9IYv8W916puLYk2_sT2_-2">
          <mxGeometry relative="1" as="geometry" />
        </mxCell>
        <mxCell id="wTir5Os9t_VI9CqBM_ZI-2" value="&lt;font style=&quot;font-size: 18px&quot;&gt;存草稿表&lt;/font&gt;" style="rounded=0;whiteSpace=wrap;html=1;fillColor=#dae8fc;strokeColor=#6c8ebf;" parent="1" vertex="1">
          <mxGeometry x="190" y="210" width="100" height="35" as="geometry" />
        </mxCell>
        <mxCell id="9IYv8W916puLYk2_sT2_-1" value="&lt;div&gt;scm_supplier.&lt;/div&gt;&lt;div&gt;seller_proposal_task&lt;/div&gt;" style="text;html=1;resizable=0;autosize=1;align=center;verticalAlign=middle;points=[];fillColor=#d5e8d4;strokeColor=#82b366;rounded=0;" parent="1" vertex="1">
          <mxGeometry x="350" y="225" width="130" height="30" as="geometry" />
        </mxCell>
        <mxCell id="Iar_Q1YkN01XE9snn5x5-18" style="edgeStyle=orthogonalEdgeStyle;rounded=0;orthogonalLoop=1;jettySize=auto;html=1;fontSize=14;fontColor=#000000;" edge="1" parent="1" source="9IYv8W916puLYk2_sT2_-2" target="9IYv8W916puLYk2_sT2_-4">
          <mxGeometry relative="1" as="geometry" />
        </mxCell>
        <mxCell id="9IYv8W916puLYk2_sT2_-2" value="&lt;font style=&quot;font-size: 18px&quot;&gt;提交审核&lt;/font&gt;" style="rounded=0;whiteSpace=wrap;html=1;fillColor=#dae8fc;strokeColor=#6c8ebf;" parent="1" vertex="1">
          <mxGeometry x="190" y="300" width="100" height="40" as="geometry" />
        </mxCell>
        <mxCell id="9IYv8W916puLYk2_sT2_-3" value="&lt;div&gt;&lt;font style=&quot;font-size: 14px&quot;&gt;scm_supplier.&lt;/font&gt;&lt;/div&gt;&lt;div&gt;&lt;font style=&quot;font-size: 14px&quot;&gt;&lt;b&gt;seller_apporval_task&lt;/b&gt;&lt;/font&gt;&lt;br&gt;&lt;/div&gt;" style="text;html=1;resizable=0;autosize=1;align=center;verticalAlign=middle;points=[];fillColor=#f8cecc;strokeColor=#b85450;rounded=0;" parent="1" vertex="1">
          <mxGeometry x="631" y="312.5" width="150" height="40" as="geometry" />
        </mxCell>
        <mxCell id="Iar_Q1YkN01XE9snn5x5-19" style="edgeStyle=orthogonalEdgeStyle;rounded=0;orthogonalLoop=1;jettySize=auto;html=1;exitX=0.5;exitY=1;exitDx=0;exitDy=0;fontSize=14;fontColor=#000000;" edge="1" parent="1" source="9IYv8W916puLYk2_sT2_-4" target="9IYv8W916puLYk2_sT2_-15">
          <mxGeometry relative="1" as="geometry" />
        </mxCell>
        <mxCell id="9IYv8W916puLYk2_sT2_-4" value="&lt;font style=&quot;font-size: 18px&quot;&gt;审核通过&lt;/font&gt;" style="rounded=0;whiteSpace=wrap;html=1;fillColor=#dae8fc;strokeColor=#6c8ebf;" parent="1" vertex="1">
          <mxGeometry x="190" y="420" width="100" height="40" as="geometry" />
        </mxCell>
        <mxCell id="9IYv8W916puLYk2_sT2_-5" value="&lt;div&gt;&lt;font style=&quot;font-size: 14px&quot;&gt;scm_supplier.&lt;/font&gt;&lt;/div&gt;&lt;div&gt;&lt;font style=&quot;font-size: 14px&quot;&gt;&lt;b&gt;seller_signature_register&lt;/b&gt;&lt;/font&gt;&lt;/div&gt;&lt;div&gt;&lt;font style=&quot;font-size: 14px&quot;&gt;（开放平台商户签章注册）&lt;/font&gt;&lt;br&gt;&lt;/div&gt;" style="text;html=1;resizable=0;autosize=1;align=center;verticalAlign=middle;points=[];fillColor=#f8cecc;strokeColor=#b85450;rounded=0;" parent="1" vertex="1">
          <mxGeometry x="355" y="302.5" width="180" height="50" as="geometry" />
        </mxCell>
        <mxCell id="9IYv8W916puLYk2_sT2_-6" value="&lt;font style=&quot;font-size: 14px&quot;&gt;插入一条注册信息&lt;/font&gt;" style="text;html=1;resizable=0;autosize=1;align=center;verticalAlign=middle;points=[];fillColor=#f8cecc;strokeColor=#b85450;rounded=0;" parent="1" vertex="1">
          <mxGeometry x="375" y="277.5" width="130" height="20" as="geometry" />
        </mxCell>
        <mxCell id="9IYv8W916puLYk2_sT2_-7" value="&lt;font style=&quot;font-size: 14px&quot;&gt;审核表插入一条记录&lt;/font&gt;" style="text;html=1;resizable=0;autosize=1;align=center;verticalAlign=middle;points=[];fillColor=#f8cecc;strokeColor=#b85450;rounded=0;" parent="1" vertex="1">
          <mxGeometry x="626" y="292.5" width="140" height="20" as="geometry" />
        </mxCell>
        <mxCell id="9IYv8W916puLYk2_sT2_-8" value="插入草稿表" style="text;html=1;resizable=0;autosize=1;align=center;verticalAlign=middle;points=[];fillColor=#d5e8d4;strokeColor=#82b366;rounded=0;" parent="1" vertex="1">
          <mxGeometry x="380" y="200" width="80" height="20" as="geometry" />
        </mxCell>
        <mxCell id="9IYv8W916puLYk2_sT2_-9" value="&lt;div&gt;&lt;font style=&quot;font-size: 14px&quot;&gt;scm_supplier.&lt;/font&gt;&lt;/div&gt;&lt;div&gt;&lt;font style=&quot;font-size: 14px&quot;&gt;&lt;b&gt;seller_apporval_task&lt;/b&gt;&lt;/font&gt;&lt;br&gt;&lt;/div&gt;" style="text;html=1;resizable=0;autosize=1;align=center;verticalAlign=middle;points=[];fillColor=#f8cecc;strokeColor=#b85450;rounded=0;" parent="1" vertex="1">
          <mxGeometry x="850" y="312.5" width="150" height="40" as="geometry" />
        </mxCell>
        <mxCell id="9IYv8W916puLYk2_sT2_-10" value="&lt;font style=&quot;font-size: 14px&quot;&gt;电子签章注册，&lt;br&gt;更新注册状态&lt;/font&gt;" style="text;html=1;resizable=0;autosize=1;align=center;verticalAlign=middle;points=[];fillColor=#f8cecc;strokeColor=#b85450;rounded=0;" parent="1" vertex="1">
          <mxGeometry x="870" y="277.5" width="110" height="40" as="geometry" />
        </mxCell>
        <mxCell id="9IYv8W916puLYk2_sT2_-11" value="&lt;div&gt;&lt;font style=&quot;font-size: 14px&quot;&gt;scm_supplier.&lt;/font&gt;&lt;/div&gt;&lt;div&gt;&lt;font style=&quot;font-size: 14px&quot;&gt;&lt;b&gt;seller_contract_base&lt;/b&gt;&lt;/font&gt;&lt;br&gt;&lt;/div&gt;" style="text;html=1;resizable=0;autosize=1;align=center;verticalAlign=middle;points=[];fillColor=#fff2cc;strokeColor=#d6b656;rounded=0;" parent="1" vertex="1">
          <mxGeometry x="360" y="432.5" width="150" height="40" as="geometry" />
        </mxCell>
        <mxCell id="9IYv8W916puLYk2_sT2_-12" value="&lt;font style=&quot;font-size: 14px&quot;&gt;插入一条合同基本信息&lt;/font&gt;" style="text;html=1;resizable=0;autosize=1;align=center;verticalAlign=middle;points=[];fillColor=#fff2cc;strokeColor=#d6b656;rounded=0;" parent="1" vertex="1">
          <mxGeometry x="355" y="407.5" width="160" height="20" as="geometry" />
        </mxCell>
        <mxCell id="9IYv8W916puLYk2_sT2_-13" value="&lt;div&gt;&lt;font style=&quot;font-size: 14px&quot;&gt;scm_supplier.&lt;/font&gt;&lt;/div&gt;&lt;div&gt;&lt;font style=&quot;font-size: 14px&quot;&gt;&lt;b&gt;supplier_contract_attachment&lt;/b&gt;&lt;/font&gt;&lt;br&gt;&lt;/div&gt;" style="text;html=1;resizable=0;autosize=1;align=center;verticalAlign=middle;points=[];fillColor=#fff2cc;strokeColor=#d6b656;rounded=0;" parent="1" vertex="1">
          <mxGeometry x="610" y="432.5" width="220" height="40" as="geometry" />
        </mxCell>
        <mxCell id="9IYv8W916puLYk2_sT2_-14" value="&lt;font style=&quot;font-size: 14px&quot;&gt;插入合同附件表具体信息&lt;/font&gt;" style="text;html=1;resizable=0;autosize=1;align=center;verticalAlign=middle;points=[];fillColor=#fff2cc;strokeColor=#d6b656;rounded=0;" parent="1" vertex="1">
          <mxGeometry x="630" y="407.5" width="170" height="20" as="geometry" />
        </mxCell>
        <mxCell id="9IYv8W916puLYk2_sT2_-15" value="&lt;font style=&quot;font-size: 18px&quot;&gt;商户确认签署&lt;/font&gt;" style="rounded=0;whiteSpace=wrap;html=1;fillColor=#dae8fc;strokeColor=#6c8ebf;" parent="1" vertex="1">
          <mxGeometry x="179" y="550" width="120" height="44.5" as="geometry" />
        </mxCell>
        <mxCell id="9IYv8W916puLYk2_sT2_-16" value="&lt;div&gt;&lt;font style=&quot;font-size: 14px&quot;&gt;scm_supplier.&lt;/font&gt;&lt;/div&gt;&lt;div&gt;&lt;font style=&quot;font-size: 14px&quot;&gt;&lt;b&gt;supplier_qualification_base&lt;/b&gt;&lt;/font&gt;&lt;br&gt;&lt;/div&gt;" style="text;html=1;resizable=0;autosize=1;align=center;verticalAlign=middle;points=[];fillColor=#e6d0de;strokeColor=#996185;rounded=0;gradientColor=#d5739d;" parent="1" vertex="1">
          <mxGeometry x="369" y="559.75" width="200" height="40" as="geometry" />
        </mxCell>
        <mxCell id="9IYv8W916puLYk2_sT2_-17" value="&lt;font style=&quot;font-size: 14px&quot;&gt;插入供应商资质基础信息表&lt;/font&gt;" style="text;html=1;resizable=0;autosize=1;align=center;verticalAlign=middle;points=[];fillColor=#e6d0de;strokeColor=#996185;rounded=0;gradientColor=#d5739d;" parent="1" vertex="1">
          <mxGeometry x="384" y="544.75" width="180" height="20" as="geometry" />
        </mxCell>
        <mxCell id="9IYv8W916puLYk2_sT2_-18" value="&lt;div&gt;&lt;font style=&quot;font-size: 14px&quot;&gt;scm_supplier.&lt;/font&gt;&lt;/div&gt;&lt;div&gt;&lt;font style=&quot;font-size: 14px&quot;&gt;&lt;b&gt;seller_qualification_extend&lt;/b&gt;&lt;/font&gt;&lt;br&gt;&lt;/div&gt;" style="text;html=1;resizable=0;autosize=1;align=center;verticalAlign=middle;points=[];fillColor=#e6d0de;strokeColor=#996185;rounded=0;gradientColor=#d5739d;" parent="1" vertex="1">
          <mxGeometry x="661" y="554.5" width="200" height="40" as="geometry" />
        </mxCell>
        <mxCell id="9IYv8W916puLYk2_sT2_-19" value="&lt;font style=&quot;font-size: 14px&quot;&gt;插入开放平台商户资质扩张信息表&lt;/font&gt;" style="text;html=1;resizable=0;autosize=1;align=center;verticalAlign=middle;points=[];fillColor=#e6d0de;strokeColor=#996185;rounded=0;gradientColor=#d5739d;" parent="1" vertex="1">
          <mxGeometry x="656" y="539.5" width="230" height="20" as="geometry" />
        </mxCell>
        <mxCell id="9IYv8W916puLYk2_sT2_-20" value="&lt;div&gt;&lt;font style=&quot;font-size: 14px&quot;&gt;scm_supplier.&lt;/font&gt;&lt;/div&gt;&lt;div&gt;&lt;font style=&quot;font-size: 14px&quot;&gt;&lt;b&gt;seller_subject_attachment&lt;/b&gt;&lt;/font&gt;&lt;br&gt;&lt;/div&gt;" style="text;html=1;resizable=0;autosize=1;align=center;verticalAlign=middle;points=[];fillColor=#e6d0de;strokeColor=#996185;rounded=0;gradientColor=#d5739d;" parent="1" vertex="1">
          <mxGeometry x="975" y="557" width="190" height="40" as="geometry" />
        </mxCell>
        <mxCell id="9IYv8W916puLYk2_sT2_-21" value="&lt;font style=&quot;font-size: 14px&quot;&gt;插入开放平台供应商附件管理&lt;/font&gt;" style="text;html=1;resizable=0;autosize=1;align=center;verticalAlign=middle;points=[];fillColor=#e6d0de;strokeColor=#996185;rounded=0;gradientColor=#d5739d;" parent="1" vertex="1">
          <mxGeometry x="970" y="542" width="200" height="20" as="geometry" />
        </mxCell>
        <mxCell id="9IYv8W916puLYk2_sT2_-22" value="&lt;div&gt;&lt;font style=&quot;font-size: 14px&quot;&gt;scm_supplier.&lt;/font&gt;&lt;/div&gt;&lt;div&gt;&lt;font style=&quot;font-size: 14px&quot;&gt;&lt;b&gt;supplier_operation_base&lt;/b&gt;&lt;/font&gt;&lt;br&gt;&lt;/div&gt;" style="text;html=1;resizable=0;autosize=1;align=center;verticalAlign=middle;points=[];fillColor=#e6d0de;strokeColor=#996185;rounded=0;gradientColor=#d5739d;" parent="1" vertex="1">
          <mxGeometry x="1241" y="554.5" width="180" height="40" as="geometry" />
        </mxCell>
        <mxCell id="9IYv8W916puLYk2_sT2_-23" value="&lt;font style=&quot;font-size: 14px&quot;&gt;插入供应商运营基础信息&lt;/font&gt;" style="text;html=1;resizable=0;autosize=1;align=center;verticalAlign=middle;points=[];fillColor=#e6d0de;strokeColor=#996185;rounded=0;gradientColor=#d5739d;" parent="1" vertex="1">
          <mxGeometry x="1246" y="539.5" width="170" height="20" as="geometry" />
        </mxCell>
        <mxCell id="9IYv8W916puLYk2_sT2_-24" value="&lt;font style=&quot;font-size: 14px&quot;&gt;调用vss&lt;br&gt;插入账户信息&lt;/font&gt;" style="text;html=1;resizable=0;autosize=1;align=center;verticalAlign=middle;points=[];fillColor=#e6d0de;strokeColor=#996185;rounded=0;gradientColor=#d5739d;" parent="1" vertex="1">
          <mxGeometry x="1281" y="650" width="100" height="40" as="geometry" />
        </mxCell>
        <mxCell id="9IYv8W916puLYk2_sT2_-25" value="&lt;div&gt;&lt;font style=&quot;font-size: 14px&quot;&gt;scm_supplier.&lt;/font&gt;&lt;/div&gt;&lt;div&gt;&lt;font style=&quot;font-size: 14px&quot;&gt;&lt;b&gt;seller_settlement&lt;/b&gt;&lt;/font&gt;&lt;br&gt;&lt;/div&gt;" style="text;html=1;resizable=0;autosize=1;align=center;verticalAlign=middle;points=[];fillColor=#e6d0de;strokeColor=#996185;rounded=0;gradientColor=#d5739d;" parent="1" vertex="1">
          <mxGeometry x="1015" y="650" width="130" height="40" as="geometry" />
        </mxCell>
        <mxCell id="9IYv8W916puLYk2_sT2_-26" value="&lt;font style=&quot;font-size: 14px&quot;&gt;插入商家结算信息表&lt;/font&gt;" style="text;html=1;resizable=0;autosize=1;align=center;verticalAlign=middle;points=[];fillColor=#e6d0de;strokeColor=#996185;rounded=0;gradientColor=#d5739d;" parent="1" vertex="1">
          <mxGeometry x="1010" y="630.5" width="140" height="20" as="geometry" />
        </mxCell>
        <mxCell id="9IYv8W916puLYk2_sT2_-27" value="&lt;div&gt;&lt;font style=&quot;font-size: 14px&quot;&gt;scm_supplier.&lt;/font&gt;&lt;/div&gt;&lt;div&gt;&lt;font style=&quot;font-size: 14px&quot;&gt;&lt;b&gt;seller_performance_address&lt;/b&gt;&lt;/font&gt;&lt;br&gt;&lt;/div&gt;" style="text;html=1;resizable=0;autosize=1;align=center;verticalAlign=middle;points=[];fillColor=#e6d0de;strokeColor=#996185;rounded=0;gradientColor=#d5739d;" parent="1" vertex="1">
          <mxGeometry x="666" y="659.5" width="210" height="40" as="geometry" />
        </mxCell>
        <mxCell id="9IYv8W916puLYk2_sT2_-28" value="&lt;font style=&quot;font-size: 14px&quot;&gt;插入商家履约地址表&lt;/font&gt;" style="text;html=1;resizable=0;autosize=1;align=center;verticalAlign=middle;points=[];fillColor=#e6d0de;strokeColor=#996185;rounded=0;gradientColor=#d5739d;" parent="1" vertex="1">
          <mxGeometry x="696" y="640" width="140" height="20" as="geometry" />
        </mxCell>
        <mxCell id="9IYv8W916puLYk2_sT2_-29" value="&lt;div&gt;&lt;font style=&quot;font-size: 14px&quot;&gt;scm_supplier.&lt;/font&gt;&lt;/div&gt;&lt;div&gt;&lt;font style=&quot;font-size: 14px&quot;&gt;&lt;b&gt;seller_warehouse&lt;/b&gt;&lt;/font&gt;&lt;br&gt;&lt;/div&gt;" style="text;html=1;resizable=0;autosize=1;align=center;verticalAlign=middle;points=[];fillColor=#e6d0de;strokeColor=#996185;rounded=0;gradientColor=#d5739d;" parent="1" vertex="1">
          <mxGeometry x="409" y="659.75" width="130" height="40" as="geometry" />
        </mxCell>
        <mxCell id="9IYv8W916puLYk2_sT2_-30" value="&lt;font style=&quot;font-size: 14px&quot;&gt;插入商家仓库信息表&lt;/font&gt;" style="text;html=1;resizable=0;autosize=1;align=center;verticalAlign=middle;points=[];fillColor=#e6d0de;strokeColor=#996185;rounded=0;gradientColor=#d5739d;" parent="1" vertex="1">
          <mxGeometry x="404" y="640.25" width="140" height="20" as="geometry" />
        </mxCell>
        <mxCell id="9IYv8W916puLYk2_sT2_-31" value="&lt;div&gt;&lt;font style=&quot;font-size: 14px&quot;&gt;scm_supplier.&lt;/font&gt;&lt;/div&gt;&lt;div&gt;&lt;font style=&quot;font-size: 14px&quot;&gt;&lt;b&gt;seller_sale_range_template&lt;/b&gt;&lt;/font&gt;&lt;br&gt;&lt;/div&gt;" style="text;html=1;resizable=0;autosize=1;align=center;verticalAlign=middle;points=[];fillColor=#e6d0de;strokeColor=#996185;rounded=0;gradientColor=#d5739d;" parent="1" vertex="1">
          <mxGeometry x="390" y="785" width="200" height="40" as="geometry" />
        </mxCell>
        <mxCell id="9IYv8W916puLYk2_sT2_-32" value="&lt;font style=&quot;font-size: 14px&quot;&gt;插入开放平台商家可售卖范围模版&lt;/font&gt;" style="text;html=1;resizable=0;autosize=1;align=center;verticalAlign=middle;points=[];fillColor=#e6d0de;strokeColor=#996185;rounded=0;gradientColor=#d5739d;" parent="1" vertex="1">
          <mxGeometry x="385" y="770" width="230" height="20" as="geometry" />
        </mxCell>
        <mxCell id="9IYv8W916puLYk2_sT2_-33" value="&lt;div&gt;&lt;font style=&quot;font-size: 14px&quot;&gt;scm_supplier.&lt;/font&gt;&lt;/div&gt;&lt;div&gt;&lt;font style=&quot;font-size: 14px&quot;&gt;&lt;b&gt;vendor_base&lt;/b&gt;&lt;/font&gt;&lt;br&gt;&lt;/div&gt;" style="text;html=1;resizable=0;autosize=1;align=center;verticalAlign=middle;points=[];fillColor=#e6d0de;strokeColor=#996185;rounded=0;gradientColor=#d5739d;" parent="1" vertex="1">
          <mxGeometry x="711" y="795" width="100" height="40" as="geometry" />
        </mxCell>
        <mxCell id="9IYv8W916puLYk2_sT2_-34" value="&lt;font style=&quot;font-size: 14px&quot;&gt;插入货主基础信息&lt;/font&gt;" style="text;html=1;resizable=0;autosize=1;align=center;verticalAlign=middle;points=[];fillColor=#e6d0de;strokeColor=#996185;rounded=0;gradientColor=#d5739d;" parent="1" vertex="1">
          <mxGeometry x="696" y="775" width="130" height="20" as="geometry" />
        </mxCell>
        <mxCell id="9IYv8W916puLYk2_sT2_-35" value="&lt;div&gt;&lt;font style=&quot;font-size: 14px&quot;&gt;scm_supplier.&lt;/font&gt;&lt;/div&gt;&lt;div&gt;&lt;font style=&quot;font-size: 14px&quot;&gt;&lt;b&gt;supplier_vendor_relation&lt;/b&gt;&lt;/font&gt;&lt;br&gt;&lt;/div&gt;" style="text;html=1;resizable=0;autosize=1;align=center;verticalAlign=middle;points=[];fillColor=#e6d0de;strokeColor=#996185;rounded=0;gradientColor=#d5739d;" parent="1" vertex="1">
          <mxGeometry x="910" y="787.5" width="180" height="40" as="geometry" />
        </mxCell>
        <mxCell id="9IYv8W916puLYk2_sT2_-36" value="&lt;font style=&quot;font-size: 14px&quot;&gt;插入供应商货主关系表&lt;/font&gt;" style="text;html=1;resizable=0;autosize=1;align=center;verticalAlign=middle;points=[];fillColor=#e6d0de;strokeColor=#996185;rounded=0;gradientColor=#d5739d;" parent="1" vertex="1">
          <mxGeometry x="920" y="772.5" width="160" height="20" as="geometry" />
        </mxCell>
        <mxCell id="9IYv8W916puLYk2_sT2_-38" value="&lt;div&gt;&lt;font style=&quot;font-size: 14px&quot;&gt;scm_supplier.&lt;/font&gt;&lt;/div&gt;&lt;div&gt;&lt;font style=&quot;font-size: 14px&quot;&gt;&lt;b&gt;seller_supplier_extend&lt;/b&gt;&lt;/font&gt;&lt;br&gt;&lt;/div&gt;" style="text;html=1;resizable=0;autosize=1;align=center;verticalAlign=middle;points=[];fillColor=#e6d0de;strokeColor=#996185;rounded=0;gradientColor=#d5739d;" parent="1" vertex="1">
          <mxGeometry x="1164" y="787.5" width="170" height="40" as="geometry" />
        </mxCell>
        <mxCell id="9IYv8W916puLYk2_sT2_-39" value="&lt;font style=&quot;font-size: 14px&quot;&gt;插入供应商扩展信息&lt;/font&gt;" style="text;html=1;resizable=0;autosize=1;align=center;verticalAlign=middle;points=[];fillColor=#e6d0de;strokeColor=#996185;rounded=0;gradientColor=#d5739d;" parent="1" vertex="1">
          <mxGeometry x="1174" y="772.5" width="140" height="20" as="geometry" />
        </mxCell>
        <mxCell id="9IYv8W916puLYk2_sT2_-40" value="&lt;font style=&quot;font-size: 14px&quot;&gt;同步bms&lt;/font&gt;" style="text;html=1;resizable=0;autosize=1;align=center;verticalAlign=middle;points=[];fillColor=#e6d0de;strokeColor=#996185;rounded=0;gradientColor=#d5739d;" parent="1" vertex="1">
          <mxGeometry x="1416" y="785" width="70" height="20" as="geometry" />
        </mxCell>
        <mxCell id="Iar_Q1YkN01XE9snn5x5-4" value="" style="html=1;shadow=0;dashed=0;align=center;verticalAlign=middle;shape=mxgraph.arrows2.arrow;dy=0.67;dx=20;notch=0;fontSize=18;fontColor=#000000;" vertex="1" parent="1">
          <mxGeometry x="300" y="217.5" width="55" height="20" as="geometry" />
        </mxCell>
        <mxCell id="Iar_Q1YkN01XE9snn5x5-5" value="" style="html=1;shadow=0;dashed=0;align=center;verticalAlign=middle;shape=mxgraph.arrows2.arrow;dy=0.67;dx=20;notch=0;fontSize=18;fontColor=#000000;" vertex="1" parent="1">
          <mxGeometry x="299" y="307.5" width="55" height="20" as="geometry" />
        </mxCell>
        <mxCell id="Iar_Q1YkN01XE9snn5x5-6" value="" style="html=1;shadow=0;dashed=0;align=center;verticalAlign=middle;shape=mxgraph.arrows2.arrow;dy=0.67;dx=20;notch=0;fontSize=18;fontColor=#000000;" vertex="1" parent="1">
          <mxGeometry x="560" y="310" width="55" height="20" as="geometry" />
        </mxCell>
        <mxCell id="Iar_Q1YkN01XE9snn5x5-7" value="" style="html=1;shadow=0;dashed=0;align=center;verticalAlign=middle;shape=mxgraph.arrows2.arrow;dy=0.67;dx=20;notch=0;fontSize=18;fontColor=#000000;" vertex="1" parent="1">
          <mxGeometry x="771" y="310" width="55" height="20" as="geometry" />
        </mxCell>
        <mxCell id="Iar_Q1YkN01XE9snn5x5-8" value="" style="html=1;shadow=0;dashed=0;align=center;verticalAlign=middle;shape=mxgraph.arrows2.arrow;dy=0.67;dx=20;notch=0;fontSize=18;fontColor=#000000;" vertex="1" parent="1">
          <mxGeometry x="300" y="432.5" width="55" height="20" as="geometry" />
        </mxCell>
        <mxCell id="Iar_Q1YkN01XE9snn5x5-9" value="" style="html=1;shadow=0;dashed=0;align=center;verticalAlign=middle;shape=mxgraph.arrows2.arrow;dy=0.67;dx=20;notch=0;fontSize=18;fontColor=#000000;" vertex="1" parent="1">
          <mxGeometry x="530" y="430" width="55" height="20" as="geometry" />
        </mxCell>
        <mxCell id="Iar_Q1YkN01XE9snn5x5-11" value="" style="html=1;shadow=0;dashed=0;align=center;verticalAlign=middle;shape=mxgraph.arrows2.arrow;dy=0.67;dx=20;notch=0;fontSize=18;fontColor=#000000;" vertex="1" parent="1">
          <mxGeometry x="310" y="562.25" width="55" height="20" as="geometry" />
        </mxCell>
        <mxCell id="Iar_Q1YkN01XE9snn5x5-12" value="" style="html=1;shadow=0;dashed=0;align=center;verticalAlign=middle;shape=mxgraph.arrows2.arrow;dy=0.67;dx=20;notch=0;fontSize=18;fontColor=#000000;" vertex="1" parent="1">
          <mxGeometry x="585" y="559.5" width="55" height="20" as="geometry" />
        </mxCell>
        <mxCell id="Iar_Q1YkN01XE9snn5x5-14" value="" style="html=1;shadow=0;dashed=0;align=center;verticalAlign=middle;shape=mxgraph.arrows2.arrow;dy=0.67;dx=20;notch=0;fontSize=18;fontColor=#000000;" vertex="1" parent="1">
          <mxGeometry x="897.5" y="559.5" width="55" height="20" as="geometry" />
        </mxCell>
        <mxCell id="Iar_Q1YkN01XE9snn5x5-15" value="" style="html=1;shadow=0;dashed=0;align=center;verticalAlign=middle;shape=mxgraph.arrows2.arrow;dy=0.67;dx=20;notch=0;fontSize=18;fontColor=#000000;" vertex="1" parent="1">
          <mxGeometry x="1190" y="559.75" width="55" height="20" as="geometry" />
        </mxCell>
        <mxCell id="Iar_Q1YkN01XE9snn5x5-16" value="" style="html=1;shadow=0;dashed=0;align=center;verticalAlign=middle;shape=mxgraph.arrows2.arrow;dy=0.6;dx=22.5;direction=south;notch=0;fontSize=14;fontColor=#000000;" vertex="1" parent="1">
          <mxGeometry x="1319" y="599.75" width="20" height="49.5" as="geometry" />
        </mxCell>
        <mxCell id="Iar_Q1YkN01XE9snn5x5-21" value="" style="html=1;shadow=0;dashed=0;align=center;verticalAlign=middle;shape=mxgraph.arrows2.arrow;dy=0.6;dx=24;flipH=1;notch=0;fontSize=14;fontColor=#000000;" vertex="1" parent="1">
          <mxGeometry x="1190" y="659.75" width="60" height="20" as="geometry" />
        </mxCell>
        <mxCell id="Iar_Q1YkN01XE9snn5x5-22" value="" style="html=1;shadow=0;dashed=0;align=center;verticalAlign=middle;shape=mxgraph.arrows2.arrow;dy=0.6;dx=24;flipH=1;notch=0;fontSize=14;fontColor=#000000;" vertex="1" parent="1">
          <mxGeometry x="900" y="659.75" width="60" height="20" as="geometry" />
        </mxCell>
        <mxCell id="Iar_Q1YkN01XE9snn5x5-23" value="" style="html=1;shadow=0;dashed=0;align=center;verticalAlign=middle;shape=mxgraph.arrows2.arrow;dy=0.6;dx=24;flipH=1;notch=0;fontSize=14;fontColor=#000000;" vertex="1" parent="1">
          <mxGeometry x="580" y="660.25" width="60" height="20" as="geometry" />
        </mxCell>
        <mxCell id="Iar_Q1YkN01XE9snn5x5-24" value="" style="html=1;shadow=0;dashed=0;align=center;verticalAlign=middle;shape=mxgraph.arrows2.arrow;dy=0.6;dx=22.5;direction=south;notch=0;fontSize=14;fontColor=#000000;" vertex="1" parent="1">
          <mxGeometry x="460" y="710" width="20" height="49.5" as="geometry" />
        </mxCell>
        <mxCell id="Iar_Q1YkN01XE9snn5x5-25" value="" style="html=1;shadow=0;dashed=0;align=center;verticalAlign=middle;shape=mxgraph.arrows2.arrow;dy=0.67;dx=20;notch=0;fontSize=18;fontColor=#000000;" vertex="1" parent="1">
          <mxGeometry x="626" y="790" width="55" height="20" as="geometry" />
        </mxCell>
        <mxCell id="Iar_Q1YkN01XE9snn5x5-26" value="" style="html=1;shadow=0;dashed=0;align=center;verticalAlign=middle;shape=mxgraph.arrows2.arrow;dy=0.67;dx=20;notch=0;fontSize=18;fontColor=#000000;" vertex="1" parent="1">
          <mxGeometry x="836" y="795" width="55" height="20" as="geometry" />
        </mxCell>
        <mxCell id="Iar_Q1YkN01XE9snn5x5-27" value="" style="html=1;shadow=0;dashed=0;align=center;verticalAlign=middle;shape=mxgraph.arrows2.arrow;dy=0.67;dx=20;notch=0;fontSize=18;fontColor=#000000;" vertex="1" parent="1">
          <mxGeometry x="1110" y="790" width="55" height="20" as="geometry" />
        </mxCell>
        <mxCell id="Iar_Q1YkN01XE9snn5x5-28" value="" style="html=1;shadow=0;dashed=0;align=center;verticalAlign=middle;shape=mxgraph.arrows2.arrow;dy=0.67;dx=20;notch=0;fontSize=18;fontColor=#000000;" vertex="1" parent="1">
          <mxGeometry x="1339" y="785" width="55" height="20" as="geometry" />
        </mxCell>
      </root>
    </mxGraphModel>
  </diagram>
</mxfile>
